<?xml version="1.0" standalone="no"?><!DOCTYPE svg PUBLIC "-//W3C//DTD SVG 1.1//EN" "http://www.w3.org/Graphics/SVG/1.1/DTD/svg11.dtd"><svg class="icon" width="200px" height="200.00px" viewBox="0 0 1024 1024" version="1.1" xmlns="http://www.w3.org/2000/svg"><path fill="#333333" d="M929.013575 514.316742c0-50.968326-32.434389-101.936652-83.402715-139.004525 50.968326-37.067873 83.402715-88.036199 83.402715-139.004525 0-129.737557-185.339367-231.674208-417.013575-231.674208s-417.013575 101.936652-417.013575 231.674208c0 50.968326 32.434389 101.936652 83.402715 139.004525-50.968326 37.067873-83.402715 83.402715-83.402715 139.004525 0 50.968326 32.434389 101.936652 83.402715 139.004525-50.968326 37.067873-83.402715 88.036199-83.402715 139.004525 0 129.737557 185.339367 231.674208 417.013575 231.674208s417.013575-101.936652 417.013575-231.674208c0-50.968326-32.434389-101.936652-83.402715-139.004525 50.968326-41.701357 83.402715-88.036199 83.402715-139.004525zM512 120.470588c194.606335 0 301.176471 83.402715 301.176471 115.837104S706.606335 352.144796 512 352.144796 210.823529 268.742081 210.823529 236.307692c0-37.067873 106.570136-115.837104 301.176471-115.837104z m0 347.511312c74.135747 0 143.638009-9.266968 208.506787-32.434389 60.235294 27.800905 92.669683 60.235294 92.669684 78.769231 0 32.434389-106.570136 115.837104-301.176471 115.837104s-301.176471-83.402715-301.176471-115.837104c0-18.533937 32.434389-50.968326 92.669684-78.769231 60.235294 18.533937 134.371041 32.434389 208.506787 32.434389z m301.176471 324.343892c0 32.434389-106.570136 115.837104-301.176471 115.837104s-301.176471-83.402715-301.176471-115.837104c0-18.533937 32.434389-50.968326 92.669684-78.769231 60.235294 18.533937 129.737557 32.434389 208.506787 32.434389 74.135747 0 143.638009-9.266968 208.506787-32.434389 60.235294 27.800905 92.669683 60.235294 92.669684 78.769231z" /></svg>