<?xml version="1.0" standalone="no"?><!DOCTYPE svg PUBLIC "-//W3C//DTD SVG 1.1//EN" "http://www.w3.org/Graphics/SVG/1.1/DTD/svg11.dtd"><svg class="icon" width="200px" height="200.00px" viewBox="0 0 1024 1024" version="1.1" xmlns="http://www.w3.org/2000/svg"><path fill="#333333" d="M305.74999971 474.49999971H212.00000029a18.74999971 18.74999971 0 0 0 0 37.50000029h93.74999942a18.74999971 18.74999971 0 0 0 0-37.50000029zM568.25 512a18.74999971 18.74999971 0 0 0 0-37.50000029h-93.75000029a18.74999971 18.74999971 0 0 0 0 37.50000029zM811.99999971 512a18.74999971 18.74999971 0 0 0 0-37.50000029h-93.74999942a18.74999971 18.74999971 0 0 0 0 37.50000029z"  /><path fill="#333333" d="M924.49999971 174.5H99.50000029a18.74999971 18.74999971 0 0 0-18.75000058 18.74999971v562.5a18.74999971 18.74999971 0 0 0 18.75000058 18.75000058h112.5a18.74999971 18.74999971 0 0 0 0-37.50000029H118.25V212.00000029h787.5v524.99999971H474.49999971a18.74999971 18.74999971 0 0 0-8.4375 2.06250029l-262.49999942 131.24999971a18.74999971 18.74999971 0 0 0-8.25000029 25.12500029A18.74999971 18.74999971 0 0 0 212.00000029 905.75a17.4375 17.4375 0 0 0 8.4375-2.06250029L478.99999971 774.50000029H924.49999971a18.74999971 18.74999971 0 0 0 18.75000058-18.75000058V193.24999971a18.74999971 18.74999971 0 0 0-18.75000058-18.74999971z"  /></svg>